<svg xmlns="http://www.w3.org/2000/svg" viewBox="0 0 16 48" width="64" height="192" shape-rendering="crispEdges"><g fill="#1c1c1f"><rect x="0" y="8" width="1" height="1"/><rect x="4" y="8" width="1" height="1"/><rect x="8" y="8" width="1" height="1"/><rect x="12" y="8" width="1" height="1"/><rect x="2" y="10" width="1" height="1"/><rect x="10" y="10" width="1" height="1"/><rect x="0" y="12" width="1" height="1"/><rect x="4" y="12" width="1" height="1"/><rect x="8" y="12" width="1" height="1"/><rect x="12" y="12" width="1" height="1"/><rect x="2" y="14" width="1" height="1"/><rect x="6" y="14" width="1" height="1"/><rect x="10" y="14" width="1" height="1"/><rect x="14" y="14" width="1" height="1"/><rect x="0" y="16" width="1" height="1"/><rect x="2" y="16" width="1" height="1"/><rect x="4" y="16" width="1" height="1"/><rect x="6" y="16" width="1" height="1"/><rect x="8" y="16" width="1" height="1"/><rect x="10" y="16" width="1" height="1"/><rect x="12" y="16" width="1" height="1"/><rect x="14" y="16" width="1" height="1"/><rect x="0" y="18" width="1" height="1"/><rect x="2" y="18" width="1" height="1"/><rect x="6" y="18" width="1" height="1"/><rect x="8" y="18" width="1" height="1"/><rect x="10" y="18" width="1" height="1"/><rect x="14" y="18" width="1" height="1"/><rect x="0" y="20" width="1" height="1"/><rect x="2" y="20" width="1" height="1"/><rect x="4" y="20" width="1" height="1"/><rect x="6" y="20" width="1" height="1"/><rect x="8" y="20" width="1" height="1"/><rect x="10" y="20" width="1" height="1"/><rect x="12" y="20" width="1" height="1"/><rect x="14" y="20" width="1" height="1"/><rect x="5" y="21" width="1" height="1"/><rect x="13" y="21" width="1" height="1"/><rect x="0" y="22" width="1" height="1"/><rect x="2" y="22" width="1" height="1"/><rect x="4" y="22" width="1" height="1"/><rect x="6" y="22" width="1" height="1"/><rect x="8" y="22" width="1" height="1"/><rect x="10" y="22" width="1" height="1"/><rect x="12" y="22" width="1" height="1"/><rect x="14" y="22" width="1" height="1"/><rect x="0" y="24" width="1" height="1"/><rect x="2" y="24" width="1" height="1"/><rect x="4" y="24" width="1" height="1"/><rect x="6" y="24" width="1" height="1"/><rect x="8" y="24" width="1" height="1"/><rect x="10" y="24" width="1" height="1"/><rect x="12" y="24" width="1" height="1"/><rect x="14" y="24" width="1" height="1"/><rect x="1" y="25" width="1" height="1"/><rect x="5" y="25" width="1" height="1"/><rect x="9" y="25" width="1" height="1"/><rect x="13" y="25" width="1" height="1"/><rect x="0" y="26" width="1" height="1"/><rect x="2" y="26" width="1" height="1"/><rect x="4" y="26" width="1" height="1"/><rect x="6" y="26" width="1" height="1"/><rect x="8" y="26" width="1" height="1"/><rect x="10" y="26" width="1" height="1"/><rect x="12" y="26" width="1" height="1"/><rect x="14" y="26" width="1" height="1"/><rect x="3" y="27" width="1" height="1"/><rect x="7" y="27" width="1" height="1"/><rect x="11" y="27" width="1" height="1"/><rect x="15" y="27" width="1" height="1"/><rect x="0" y="28" width="1" height="1"/><rect x="2" y="28" width="1" height="1"/><rect x="4" y="28" width="1" height="1"/><rect x="6" y="28" width="1" height="1"/><rect x="8" y="28" width="1" height="1"/><rect x="10" y="28" width="1" height="1"/><rect x="12" y="28" width="1" height="1"/><rect x="14" y="28" width="1" height="1"/><rect x="1" y="29" width="1" height="1"/><rect x="3" y="29" width="1" height="1"/><rect x="5" y="29" width="1" height="1"/><rect x="7" y="29" width="1" height="1"/><rect x="9" y="29" width="1" height="1"/><rect x="11" y="29" width="1" height="1"/><rect x="13" y="29" width="1" height="1"/><rect x="15" y="29" width="1" height="1"/><rect x="0" y="30" width="1" height="1"/><rect x="2" y="30" width="1" height="1"/><rect x="4" y="30" width="1" height="1"/><rect x="6" y="30" width="1" height="1"/><rect x="8" y="30" width="1" height="1"/><rect x="10" y="30" width="1" height="1"/><rect x="12" y="30" width="1" height="1"/><rect x="14" y="30" width="1" height="1"/><rect x="1" y="31" width="1" height="1"/><rect x="3" y="31" width="1" height="1"/><rect x="5" y="31" width="1" height="1"/><rect x="7" y="31" width="1" height="1"/><rect x="9" y="31" width="1" height="1"/><rect x="11" y="31" width="1" height="1"/><rect x="13" y="31" width="1" height="1"/><rect x="15" y="31" width="1" height="1"/><rect x="0" y="32" width="3" height="1"/><rect x="4" y="32" width="1" height="1"/><rect x="6" y="32" width="1" height="1"/><rect x="8" y="32" width="3" height="1"/><rect x="12" y="32" width="1" height="1"/><rect x="14" y="32" width="1" height="1"/><rect x="1" y="33" width="1" height="1"/><rect x="3" y="33" width="1" height="1"/><rect x="5" y="33" width="1" height="1"/><rect x="7" y="33" width="1" height="1"/><rect x="9" y="33" width="1" height="1"/><rect x="11" y="33" width="1" height="1"/><rect x="13" y="33" width="1" height="1"/><rect x="15" y="33" width="1" height="1"/><rect x="0" y="34" width="1" height="1"/><rect x="2" y="34" width="3" height="1"/><rect x="6" y="34" width="1" height="1"/><rect x="8" y="34" width="1" height="1"/><rect x="10" y="34" width="3" height="1"/><rect x="14" y="34" width="1" height="1"/><rect x="1" y="35" width="1" height="1"/><rect x="3" y="35" width="1" height="1"/><rect x="5" y="35" width="1" height="1"/><rect x="7" y="35" width="1" height="1"/><rect x="9" y="35" width="1" height="1"/><rect x="11" y="35" width="1" height="1"/><rect x="13" y="35" width="1" height="1"/><rect x="15" y="35" width="1" height="1"/><rect x="0" y="36" width="3" height="1"/><rect x="4" y="36" width="3" height="1"/><rect x="8" y="36" width="3" height="1"/><rect x="12" y="36" width="3" height="1"/><rect x="1" y="37" width="1" height="1"/><rect x="3" y="37" width="1" height="1"/><rect x="5" y="37" width="1" height="1"/><rect x="7" y="37" width="1" height="1"/><rect x="9" y="37" width="1" height="1"/><rect x="11" y="37" width="1" height="1"/><rect x="13" y="37" width="1" height="1"/><rect x="15" y="37" width="1" height="1"/><rect x="0" y="38" width="1" height="1"/><rect x="2" y="38" width="3" height="1"/><rect x="6" y="38" width="3" height="1"/><rect x="10" y="38" width="3" height="1"/><rect x="14" y="38" width="2" height="1"/><rect x="1" y="39" width="1" height="1"/><rect x="3" y="39" width="1" height="1"/><rect x="5" y="39" width="1" height="1"/><rect x="7" y="39" width="1" height="1"/><rect x="9" y="39" width="1" height="1"/><rect x="11" y="39" width="1" height="1"/><rect x="13" y="39" width="1" height="1"/><rect x="15" y="39" width="1" height="1"/><rect x="0" y="40" width="16" height="1"/><rect x="0" y="41" width="2" height="1"/><rect x="3" y="41" width="3" height="1"/><rect x="7" y="41" width="3" height="1"/><rect x="11" y="41" width="3" height="1"/><rect x="15" y="41" width="1" height="1"/><rect x="0" y="42" width="16" height="1"/><rect x="1" y="43" width="3" height="1"/><rect x="5" y="43" width="3" height="1"/><rect x="9" y="43" width="3" height="1"/><rect x="13" y="43" width="3" height="1"/><rect x="0" y="44" width="16" height="1"/><rect x="0" y="45" width="2" height="1"/><rect x="3" y="45" width="7" height="1"/><rect x="11" y="45" width="5" height="1"/><rect x="0" y="46" width="16" height="1"/><rect x="1" y="47" width="7" height="1"/><rect x="9" y="47" width="7" height="1"/></g></svg>
